<?xml version="1.0" encoding="UTF-8"?> <svg xmlns="http://www.w3.org/2000/svg" width="250" height="45" viewBox="0 0 250 45" fill="none"> <path fill-rule="evenodd" clip-rule="evenodd" d="M89.9106 30.6194C94.4394 30.6194 98.0748 27.065 98.0748 22.4596C98.0748 17.8543 94.4394 14.2998 89.9106 14.2998C85.3817 14.2998 81.7464 17.8543 81.7464 22.4596C81.7464 27.065 85.3817 30.6194 89.9106 30.6194ZM89.9106 26.1068C87.908 26.1068 86.3676 24.6541 86.3676 22.4596C86.3676 20.2651 87.908 18.8124 89.9106 18.8124C91.9131 18.8124 93.4535 20.2651 93.4535 22.4596C93.4535 24.6541 91.9131 26.1068 89.9106 26.1068ZM105.395 16.1852C106.412 15.0107 107.922 14.2998 109.986 14.2998C114.022 14.2998 117.349 17.8543 117.349 22.4596C117.349 27.065 114.022 30.6194 109.986 30.6194C109.977 30.6194 109.964 30.6198 109.949 30.6205C109.936 30.6211 109.921 30.6218 109.904 30.6226C109.426 30.6458 107.283 30.7498 105.395 29.3038V34.9807H100.774V14.7325H105.395V16.1852ZM105.395 22.4596C105.395 24.7777 106.936 26.2304 109.062 26.2304C111.187 26.2304 112.728 24.7777 112.728 22.4596C112.728 20.1415 111.187 18.6888 109.062 18.6888C106.936 18.6888 105.395 20.1415 105.395 22.4596ZM144.143 16.1852C145.159 15.0107 146.669 14.2998 148.733 14.2998C152.769 14.2998 156.096 17.8543 156.096 22.4596C156.096 27.065 152.769 30.6194 148.733 30.6194C148.717 30.6194 148.69 30.6208 148.651 30.6226C148.173 30.6458 146.031 30.7498 144.143 29.3038V34.9807H139.521V14.7325H144.143V16.1852ZM144.143 22.4596C144.143 24.7777 145.683 26.2304 147.809 26.2304C149.935 26.2304 151.475 24.7777 151.475 22.4596C151.475 20.1415 149.935 18.6888 147.809 18.6888C145.683 18.6888 144.143 20.1415 144.143 22.4596ZM181.506 16.468V14.6393H176.885V30.4404H181.506V23.4551C181.506 20.3952 184.397 19.7637 186.127 19.7637V14.6772C184.186 14.6772 182.408 15.2538 181.506 16.468ZM163.102 24.661H174.039C174.162 24.0737 174.223 23.4556 174.223 22.8065C174.223 18.1393 170.896 14.6467 166.398 14.6467C161.53 14.6467 158.203 18.2012 158.203 22.8065C158.203 27.4118 161.469 30.9663 166.737 30.9663C170.507 30.9663 172.415 29.1497 173.512 28.0497L169.756 25.6501C169.124 26.3997 168.062 26.8246 166.799 26.8246C165.104 26.8246 163.687 26.2682 163.102 24.661ZM163.009 20.8523C163.77 19.6049 164.635 18.7575 166.367 18.7575C167.489 18.7575 168.786 19.0845 169.633 20.8523H163.009ZM131.409 14.7325V16.0408C129.961 14.6467 128.615 14.6467 126.819 14.6467C122.783 14.6467 119.456 18.2012 119.456 22.8065C119.456 27.4118 122.783 30.9663 126.819 30.9663C128.318 30.9663 129.874 30.9663 131.409 29.2543V31.054H136.031V14.7325H131.409ZM127.743 26.5773C125.617 26.5773 124.077 25.1246 124.077 22.8065C124.077 20.4884 125.617 19.0357 127.743 19.0357C129.869 19.0357 131.409 20.4884 131.409 22.8065C131.409 25.1246 129.869 26.5773 127.743 26.5773ZM68.9849 16.5321C69.8167 15.3885 71.3572 14.6467 73.3905 14.6467C76.5022 14.6467 79.1517 16.8721 79.1517 21.0447V30.5336H74.5304V21.7247C74.5304 19.8084 73.3289 18.912 71.8501 18.912C70.1556 18.912 68.9849 19.9011 68.9849 22.0956V30.5336H64.3636V14.7325H68.9849V16.5321Z" fill="#222835"></path> <rect width="38.8373" height="7.76746" transform="matrix(0.706131 -0.708081 0.706131 0.708081 20.4849 33)" fill="#2E62D9"></rect> <rect width="38.8373" height="7.76746" transform="matrix(0.706131 0.708081 -0.706131 0.708081 25.9697 5.5)" fill="#FC5454"></rect> <rect width="7.73269" height="7.76746" transform="matrix(0.706131 0.708081 -0.706131 0.708081 36.9531 16.5137)" fill="#2D2047"></rect> </svg> 